<svg xmlns="http://www.w3.org/2000/svg" width="60" height="60" viewBox="0 0 60 60">
  <g id="home" transform="translate(-114 -61.624)">
    <g id="Layer_1">
      <g id="Group_1" data-name="Group 1">
        <path id="Path_1" data-name="Path 1" d="M74.965,79.624H58.326a1.718,1.718,0,0,1-1.744-1.69V61.261a5.253,5.253,0,0,0-4.967-5.252c-.1-.006-.182,0-.265,0s-.167,0-.25,0a5.246,5.246,0,0,0-4.982,5.252V77.934a1.718,1.718,0,0,1-1.744,1.69H27.035A6.125,6.125,0,0,1,21,73.426V44.789a7.454,7.454,0,0,1,2.974-5.984L49.261,19.974a1.789,1.789,0,0,1,2.093-.024L77.9,38.792A7.437,7.437,0,0,1,81,44.873V73.425a6.125,6.125,0,0,1-6.035,6.2Zm-14.9-3.38h14.9a2.7,2.7,0,0,0,2.547-2.818V44.873a4.082,4.082,0,0,0-1.67-3.352L50.348,23.428,26.1,41.489a4.091,4.091,0,0,0-1.607,3.3V73.426a2.7,2.7,0,0,0,2.547,2.818H42.628V61.261A8.67,8.67,0,0,1,50.9,52.633a8.131,8.131,0,0,1,.908,0,8.732,8.732,0,0,1,5.722,2.537,8.541,8.541,0,0,1,2.538,6.09Z" transform="translate(93 42)" fill="#fff"/>
      </g>
    </g>
  </g>
</svg>
