<svg xmlns="http://www.w3.org/2000/svg" width="61.062" height="60" viewBox="0 0 61.062 60">
  <g id="menu" transform="translate(-73.225 -0.285)">
    <g id="_x31_6_Menu" transform="translate(73.225 0.285)">
      <g id="Group_5" data-name="Group 5" transform="translate(0)">
        <g id="Group_3" data-name="Group 3" transform="translate(34.03 15.437)">
          <g id="Group_2" data-name="Group 2">
            <path id="Path_2" data-name="Path 2" d="M279.19,136.262a10.856,10.856,0,0,0-1.573-.5.543.543,0,1,0-.251,1.057,9.767,9.767,0,0,1,1.416.453.543.543,0,1,0,.408-1.006Z" transform="translate(-276.948 -135.744)" fill="#fff"/>
            <path id="Path_3" data-name="Path 3" d="M303.721,149.6a11.06,11.06,0,0,0-2.408-2.581.543.543,0,0,0-.666.858,9.967,9.967,0,0,1,2.146,2.291.544.544,0,1,0,.927-.568Z" transform="translate(-296.513 -145.038)" fill="#fff"/>
          </g>
        </g>
        <g id="Group_4" data-name="Group 4">
          <path id="Path_4" data-name="Path 4" d="M409.75,456.539a.545.545,0,0,0-.576.508,8.2,8.2,0,0,1-4.343,6.689.543.543,0,0,0,.506.961,9.288,9.288,0,0,0,4.921-7.581A.543.543,0,0,0,409.75,456.539Z" transform="translate(-349.197 -405.755)" fill="#fff"/>
          <path id="Path_5" data-name="Path 5" d="M377.632,504.819a14.667,14.667,0,0,1-1.863.061.543.543,0,1,0,0,1.086,15.57,15.57,0,0,0,2-.069.543.543,0,1,0-.133-1.078Z" transform="translate(-324.779 -445.967)" fill="#fff"/>
          <path id="Path_6" data-name="Path 6" d="M73.768,133.546a.543.543,0,0,0-.543.543v8.2a.543.543,0,0,0,1.086,0v-8.2A.543.543,0,0,0,73.768,133.546Z" transform="translate(-73.225 -118.721)" fill="#fff"/>
          <path id="Path_7" data-name="Path 7" d="M73.768,107.429a.543.543,0,0,0-.543.543v1.5a.543.543,0,1,0,1.086,0v-1.5A.543.543,0,0,0,73.768,107.429Z" transform="translate(-73.225 -95.025)" fill="#fff"/>
          <path id="Path_8" data-name="Path 8" d="M148.165,52.839V10.631c0-2.19-2.583-3.971-5.757-3.971h-.386v-2.4c0-2.547-3.425-4.432-7.02-3.874L94.459,6.67c-.244.038-.427.216-.427.364v45.8c0,2.19,2.583,3.971,5.757,3.971h42.618C145.582,56.809,148.165,55.028,148.165,52.839ZM135.24,1.114c2.918-.452,5.7,1.077,5.7,3.143v2.4H99.477ZM95.118,52.839V7.411h47.289c2.576,0,4.671,1.445,4.671,3.222V52.839c0,1.776-2.1,3.222-4.671,3.222H99.789C97.213,56.06,95.118,54.615,95.118,52.839Z" transform="translate(-90.556 -0.285)" fill="#fff"/>
          <path id="Path_9" data-name="Path 9" d="M121.249,261.323a2.623,2.623,0,1,0,2.623,2.623A2.626,2.626,0,0,0,121.249,261.323Zm0,4.16a1.537,1.537,0,1,1,1.537-1.537A1.539,1.539,0,0,1,121.249,265.483Z" transform="translate(-111.042 -231.548)" fill="#fff"/>
          <path id="Path_10" data-name="Path 10" d="M203.113,260.989H180.1a.543.543,0,0,0,0,1.086h23.018a.543.543,0,0,0,0-1.086Z" transform="translate(-161.791 -230.571)" fill="#fff"/>
          <path id="Path_11" data-name="Path 11" d="M180.1,287.649h10.733a.543.543,0,1,0,0-1.086H180.1a.543.543,0,0,0,0,1.086Z" transform="translate(-161.791 -253.161)" fill="#fff"/>
          <path id="Path_12" data-name="Path 12" d="M362.01,274.864h4.265a.543.543,0,0,0,0-1.086H362.01a.543.543,0,0,0,0,1.086Z" transform="translate(-313.318 -241.867)" fill="#fff"/>
          <path id="Path_13" data-name="Path 13" d="M121.249,336a2.623,2.623,0,1,0,2.623,2.623A2.626,2.626,0,0,0,121.249,336Zm0,4.16a1.537,1.537,0,1,1,1.537-1.537A1.539,1.539,0,0,1,121.249,340.156Z" transform="translate(-111.042 -297.703)" fill="#fff"/>
          <path id="Path_14" data-name="Path 14" d="M203.113,335.662H180.1a.543.543,0,0,0,0,1.086h23.018a.543.543,0,0,0,0-1.086Z" transform="translate(-161.791 -296.531)" fill="#fff"/>
          <path id="Path_15" data-name="Path 15" d="M180.1,362.323h10.733a.543.543,0,1,0,0-1.086H180.1a.543.543,0,0,0,0,1.086Z" transform="translate(-161.791 -319.122)" fill="#fff"/>
          <path id="Path_16" data-name="Path 16" d="M362.01,349.536h4.265a.543.543,0,0,0,0-1.086H362.01a.543.543,0,0,0,0,1.086Z" transform="translate(-313.318 -307.827)" fill="#fff"/>
          <path id="Path_17" data-name="Path 17" d="M121.249,410.669a2.623,2.623,0,1,0,2.623,2.623A2.626,2.626,0,0,0,121.249,410.669Zm0,4.16a1.537,1.537,0,1,1,1.537-1.537A1.539,1.539,0,0,1,121.249,414.829Z" transform="translate(-111.042 -367.548)" fill="#fff"/>
          <path id="Path_18" data-name="Path 18" d="M203.113,410.335H180.1a.543.543,0,0,0,0,1.086h23.018a.543.543,0,0,0,0-1.086Z" transform="translate(-161.791 -367.27)" fill="#fff"/>
          <path id="Path_19" data-name="Path 19" d="M190.827,435.91H180.094a.543.543,0,1,0,0,1.086h10.733a.543.543,0,1,0,0-1.086Z" transform="translate(-161.79 -388.573)" fill="#fff"/>
          <path id="Path_20" data-name="Path 20" d="M366.819,423.666a.543.543,0,0,0-.543-.543h-4.265a.543.543,0,0,0,0,1.086h4.265A.543.543,0,0,0,366.819,423.666Z" transform="translate(-313.319 -377.922)" fill="#fff"/>
          <path id="Path_21" data-name="Path 21" d="M191.649,109.858A14.324,14.324,0,0,0,178.243,96.1a2.271,2.271,0,1,0-3.821,0,14.325,14.325,0,0,0-13.406,13.736h-.048a1.4,1.4,0,0,0-1.4,1.4v1.376a1.4,1.4,0,0,0,1.4,1.4h30.495a1.4,1.4,0,0,0,1.4-1.4v-1.376A1.4,1.4,0,0,0,191.649,109.858ZM176.333,93.7a1.184,1.184,0,1,1-1.184,1.184A1.186,1.186,0,0,1,176.333,93.7Zm-1.021,3.457h2.042a13.239,13.239,0,0,1,13.212,12.68H162.1A13.239,13.239,0,0,1,175.312,97.159Zm16.465,15.455a.314.314,0,0,1-.313.313H160.969a.314.314,0,0,1-.313-.313v-1.376a.314.314,0,0,1,.313-.313h30.495a.314.314,0,0,1,.313.313v1.376Z" transform="translate(-145.146 -83.318)" fill="#fff"/>
        </g>
      </g>
    </g>
  </g>
</svg>
