<svg xmlns="http://www.w3.org/2000/svg" width="126.032" height="43.466" viewBox="0 0 126.032 43.466">
  <g id="reservation" transform="translate(-0.984 -49.722)">
    <g id="Outline">
      <path id="Path_22" data-name="Path 22" d="M127.016,76.179c0-1.972-1.485-3.847-19.412-5.113-2.463-.174-5.159-.328-8.046-.464,0,0-5.2-18.773-5.786-19.507a3.572,3.572,0,0,0-2.818-1.365L34.98,49.722a3.58,3.58,0,0,0-3.5,2.766l-4.3,18.176c-2.411.121-4.688.254-6.787.4C2.469,72.332.984,74.207.984,76.179c0,1.218.011,3.377,13.925,5.509a2.572,2.572,0,0,0-.041.447c0,5.942,22.811,9.083,41.79,9.742l1.155-.139a1.5,1.5,0,0,0,1.5,1.45h.051a1.5,1.5,0,0,0,1.449-1.55l-1.15.324c1.483.031,2.936.049,4.338.049s2.855-.018,4.338-.049l-1.15-.324a1.5,1.5,0,0,0,1.449,1.55h.051a1.5,1.5,0,0,0,1.5-1.45l1.155.139c18.979-.659,41.79-3.8,41.79-9.742a2.571,2.571,0,0,0-.041-.447C127,79.556,127.016,77.4,127.016,76.179ZM29.6,73.478l4.8-20.3a.591.591,0,0,1,.578-.457l55.975.008a.593.593,0,0,1,.577.732l-4.8,20.3a.592.592,0,0,1-.578.458l-55.975-.01a.593.593,0,0,1-.577-.731ZM64,89.01c-26.147,0-44.332-4.363-46.07-6.857.008-.008.023-.019.032-.028.756.1,1.533.2,2.358.3A376.982,376.982,0,0,0,64,84.746a376.969,376.969,0,0,0,43.68-2.318c.825-.1,1.6-.2,2.358-.3.009.009.024.02.032.028C108.332,84.647,90.147,89.01,64,89.01Zm58.689-12.477C116.547,78.859,93.415,81.746,64,81.746S11.46,78.86,5.314,76.534a.269.269,0,0,1,.02-.509c2.738-.793,9.17-1.7,21.259-2.334a3.577,3.577,0,0,0,3.585,3.518l55.975.01a3.581,3.581,0,0,0,3.5-2.768l3.5-14.831,4.129,13.86a.593.593,0,0,1-.577.73H91.639a1.5,1.5,0,0,0,0,3H96.71a3.577,3.577,0,0,0,2.818-1.366,3.529,3.529,0,0,0,.759-2.21c12.81.634,19.553,1.573,22.374,2.391a.269.269,0,0,1,.028.508Z" fill="#fff"/>
      <path id="Path_23" data-name="Path 23" d="M59.014,67.981A4,4,0,0,1,56.166,66.8l-1.249-1.249a1.5,1.5,0,1,1,2.121-2.121l1.249,1.249a1.051,1.051,0,0,0,1.452,0L67.683,57.5a1.5,1.5,0,1,1,2.009,2.226l-7.886,7.122a3.941,3.941,0,0,1-2.792,1.129Z" fill="#fff"/>
    </g>
  </g>
</svg>
